<svg width="74" height="74" viewBox="0 0 74 74" fill="none" xmlns="http://www.w3.org/2000/svg">
<path d="M30.0625 20.35C25.2786 20.35 20.6907 22.2504 17.308 25.6331C13.9253 29.0158 12.025 33.6037 12.025 38.3875C12.025 43.1713 13.9253 47.7593 17.308 51.1419C20.6907 54.5246 25.2786 56.425 30.0625 56.425H49.4875C51.239 56.4233 52.9706 56.0532 54.5697 55.3387C56.1689 54.6241 57.5998 53.5812 58.7696 52.2776C59.9394 50.974 60.8219 49.4388 61.3597 47.7719C61.8975 46.105 62.0786 44.3436 61.8913 42.6021C61.704 40.8607 61.1525 39.1781 60.2725 37.6637C59.3925 36.1492 58.2038 34.8369 56.7836 33.8118C55.3633 32.7868 53.7433 32.072 52.0288 31.7138C50.3143 31.3557 48.5436 31.3623 46.8318 31.7331C45.4979 28.3746 43.1863 25.494 40.1964 23.4645C37.2066 21.4349 33.6761 20.3499 30.0625 20.35ZM49.4875 61.975H30.0625C25.9561 61.974 21.9212 60.901 18.3567 58.8622C14.7923 56.8234 11.8218 53.8893 9.73924 50.3503C7.65664 46.8112 6.53403 42.7898 6.48245 38.6838C6.43087 34.5777 7.45212 30.5294 9.44517 26.9391C11.4382 23.3489 14.334 20.3411 17.8461 18.2134C21.3582 16.0857 25.365 14.9117 29.47 14.8076C33.575 14.7035 37.6361 15.6728 41.2516 17.6197C44.867 19.5667 47.9116 22.4237 50.0841 25.9083C54.8229 26.0517 59.3148 28.0551 62.5878 31.485C65.8609 34.9149 67.652 39.4956 67.5736 44.2359C67.4951 48.9763 65.5535 53.4952 62.1688 56.8149C58.7841 60.1347 54.2285 61.9884 49.4875 61.975V61.975Z" fill="#99A0AE"/>
</svg>
