<svg width="24" height="24" viewBox="0 0 24 24" fill="none" xmlns="http://www.w3.org/2000/svg">
<path d="M12 3.99L7.54503 8.445C6.66402 9.3261 6.06407 10.4486 5.82103 11.6707C5.578 12.8928 5.7028 14.1595 6.17965 15.3106C6.6565 16.4617 7.46399 17.4456 8.5 18.1378C9.53602 18.8301 10.754 19.1995 12 19.1995C13.246 19.1995 14.464 18.8301 15.5001 18.1378C16.5361 17.4456 17.3436 16.4617 17.8204 15.3106C18.2973 14.1595 18.4221 12.8928 18.179 11.6707C17.936 10.4486 17.336 9.3261 16.455 8.445L12 3.99ZM12 1.4448L17.7276 7.1724C18.8604 8.30521 19.6319 9.74849 19.9444 11.3197C20.2569 12.891 20.0965 14.5196 19.4834 15.9997C18.8704 17.4798 17.8322 18.7448 16.5001 19.6348C15.1681 20.5249 13.6021 20.9999 12 20.9999C10.398 20.9999 8.83196 20.5249 7.49992 19.6348C6.16788 18.7448 5.12969 17.4798 4.51661 15.9997C3.90354 14.5196 3.74313 12.891 4.05566 11.3197C4.36819 9.74849 5.13963 8.30521 6.27243 7.1724L12 1.4448Z" fill="#335CFF"/>
</svg>
