<svg width="20" height="20" viewBox="0 0 20 20" fill="none" xmlns="http://www.w3.org/2000/svg">
<path d="M5.00048 4.40874C5.77052 3.71895 6.67499 3.19599 7.65698 2.87274C7.93776 3.22451 8.29422 3.50846 8.69986 3.70349C9.1055 3.89852 9.54989 3.99961 9.99998 3.99924C10.4501 3.99961 10.8944 3.89852 11.3001 3.70349C11.7057 3.50846 12.0622 3.22451 12.343 2.87274C13.325 3.19599 14.2294 3.71895 14.9995 4.40874C14.8356 4.82758 14.7682 5.27794 14.8022 5.72641C14.8362 6.17487 14.9708 6.60992 15.196 6.99924C15.4207 7.38931 15.7304 7.7237 16.1022 7.97756C16.4739 8.23141 16.8981 8.39819 17.3432 8.46549C17.5536 9.47717 17.5536 10.5213 17.3432 11.533C16.4732 11.6665 15.6707 12.178 15.196 12.9992C14.9707 13.3887 14.836 13.8238 14.802 14.2724C14.768 14.721 14.8355 15.1716 14.9995 15.5905C14.2294 16.28 13.3249 16.8027 12.343 17.1257C12.0621 16.7741 11.7056 16.4903 11.3 16.2954C10.8944 16.1005 10.45 15.9995 9.99998 16C9.54989 15.9996 9.1055 16.1007 8.69986 16.2957C8.29422 16.4908 7.93776 16.7747 7.65698 17.1265C6.67505 16.8035 5.77059 16.2808 5.00048 15.5912C5.16446 15.1723 5.23196 14.7218 5.19794 14.2732C5.16392 13.8246 5.02926 13.3894 4.80398 13C4.57919 12.6101 4.26941 12.2758 3.89766 12.0221C3.52591 11.7684 3.10176 11.6017 2.65673 11.5345C2.44621 10.5226 2.44621 9.47816 2.65673 8.46624C3.10182 8.39894 3.52602 8.23216 3.89778 7.97831C4.26953 7.72445 4.57928 7.39006 4.80398 6.99999C5.02915 6.61067 5.16374 6.17562 5.19776 5.72716C5.23177 5.2787 5.16435 4.82833 5.00048 4.40949V4.40874ZM11.125 11.9477C11.3829 11.8011 11.6093 11.6048 11.7911 11.3703C11.9729 11.1358 12.1066 10.8677 12.1843 10.5813C12.262 10.2949 12.2824 9.99602 12.2441 9.70177C12.2059 9.40751 12.1098 9.12373 11.9614 8.86675C11.8131 8.60978 11.6153 8.38469 11.3796 8.20445C11.1439 8.0242 10.8749 7.89236 10.588 7.81652C10.3011 7.74067 10.0021 7.72232 9.70809 7.76252C9.4141 7.80272 9.13096 7.90067 8.87498 8.05074C8.36241 8.35123 7.98951 8.84226 7.83764 9.41668C7.68577 9.99109 7.76728 10.6023 8.06436 11.1168C8.36144 11.6314 8.84999 12.0075 9.42338 12.1632C9.99678 12.3188 10.6085 12.2414 11.125 11.9477Z" fill="#525866"/>
</svg>
