<svg width="24" height="24" viewBox="0 0 24 24" fill="none" xmlns="http://www.w3.org/2000/svg">
<path d="M5.70002 16.437C4.70407 15.8612 3.8606 15.0551 3.24025 14.0863C2.6199 13.1174 2.24074 12.0141 2.13452 10.8686C2.0283 9.72305 2.19812 8.56877 2.62975 7.50239C3.06138 6.43601 3.74226 5.48858 4.61535 4.73946C5.48845 3.99034 6.52834 3.46134 7.64793 3.19677C8.76752 2.9322 9.9342 2.93976 11.0503 3.21882C12.1663 3.49788 13.1993 4.04031 14.0626 4.80068C14.9259 5.56105 15.5944 6.51722 16.0122 7.58911C17.268 7.34087 18.5711 7.58877 19.648 8.28076C20.725 8.97275 21.4919 10.055 21.788 11.3004C22.084 12.5458 21.8861 13.8574 21.2357 14.96C20.5854 16.0626 19.5332 16.8703 18.3 17.2137V15.2967C18.716 15.0993 19.0836 14.8132 19.3771 14.4584C19.6705 14.1036 19.8826 13.6888 19.9984 13.2431C20.1142 12.7975 20.1309 12.332 20.0473 11.8792C19.9638 11.4264 19.782 10.9975 19.5148 10.6225C19.2475 10.2476 18.9014 9.93582 18.5006 9.70913C18.0999 9.48243 17.6543 9.34634 17.1953 9.31043C16.7363 9.27453 16.275 9.33968 15.8439 9.5013C15.4127 9.66293 15.0223 9.9171 14.7 10.2459V10.2C14.7 9.29925 14.4747 8.41279 14.0446 7.62136C13.6145 6.82992 12.9932 6.15866 12.2374 5.66868C11.4816 5.17871 10.6152 4.88559 9.7171 4.81602C8.81903 4.74645 7.91782 4.90263 7.09554 5.27036C6.27326 5.63808 5.55602 6.20566 5.00915 6.92141C4.46228 7.63716 4.10314 8.47834 3.96443 9.36835C3.82572 10.2584 3.91186 11.1689 4.215 12.0172C4.51813 12.8654 5.02864 13.6243 5.70002 14.2248V16.437ZM7.50002 15.6H9.30002V19.2H7.50002V15.6ZM14.7 15.6H16.5V19.2H14.7V15.6ZM11.1 18.3H12.9V21.9H11.1V18.3Z" fill="#335CFF"/>
</svg>
