<svg width="24" height="24" viewBox="0 0 24 24" fill="none" xmlns="http://www.w3.org/2000/svg">
<path d="M12 17.4C10.5678 17.4 9.1943 16.8311 8.1816 15.8184C7.1689 14.8057 6.59998 13.4322 6.59998 12C6.59998 10.5678 7.1689 9.19433 8.1816 8.18163C9.1943 7.16893 10.5678 6.60001 12 6.60001C13.4321 6.60001 14.8057 7.16893 15.8184 8.18163C16.831 9.19433 17.4 10.5678 17.4 12C17.4 13.4322 16.831 14.8057 15.8184 15.8184C14.8057 16.8311 13.4321 17.4 12 17.4ZM12 15.6C12.9548 15.6 13.8704 15.2207 14.5456 14.5456C15.2207 13.8705 15.6 12.9548 15.6 12C15.6 11.0452 15.2207 10.1296 14.5456 9.45442C13.8704 8.77929 12.9548 8.40001 12 8.40001C11.0452 8.40001 10.1295 8.77929 9.45439 9.45442C8.77926 10.1296 8.39998 11.0452 8.39998 12C8.39998 12.9548 8.77926 13.8705 9.45439 14.5456C10.1295 15.2207 11.0452 15.6 12 15.6ZM11.1 2.10001H12.9V4.80001H11.1V2.10001ZM11.1 19.2H12.9V21.9H11.1V19.2ZM4.36348 5.63611L5.63608 4.36351L7.54498 6.27241L6.27238 7.54501L4.36348 5.63701V5.63611ZM16.455 17.7276L17.7276 16.455L19.6365 18.3639L18.3639 19.6365L16.455 17.7276ZM18.3639 4.36261L19.6365 5.63611L17.7276 7.54501L16.455 6.27241L18.3639 4.36351V4.36261ZM6.27238 16.455L7.54498 17.7276L5.63608 19.6365L4.36348 18.3639L6.27238 16.455ZM21.9 11.1V12.9H19.2V11.1H21.9ZM4.79998 11.1V12.9H2.09998V11.1H4.79998Z" fill="#F6B51E"/>
</svg>
