<svg width="20" height="20" viewBox="0 0 20 20" fill="none" xmlns="http://www.w3.org/2000/svg">
<path d="M5.00041 4.40874C5.77046 3.71895 6.67493 3.19599 7.65692 2.87274C7.9377 3.22451 8.29416 3.50846 8.6998 3.70349C9.10544 3.89852 9.54983 3.99961 9.99992 3.99924C10.45 3.99961 10.8944 3.89852 11.3 3.70349C11.7057 3.50846 12.0621 3.22451 12.3429 2.87274C13.3249 3.19599 14.2294 3.71895 14.9994 4.40874C14.8355 4.82758 14.7681 5.27794 14.8021 5.72641C14.8362 6.17487 14.9707 6.60992 15.1959 6.99924C15.4206 7.38931 15.7304 7.7237 16.1021 7.97756C16.4739 8.23141 16.8981 8.39819 17.3432 8.46549C17.5536 9.47717 17.5536 10.5213 17.3432 11.533C16.4732 11.6665 15.6707 12.178 15.1959 12.9992C14.9706 13.3887 14.836 13.8238 14.802 14.2724C14.7679 14.721 14.8354 15.1716 14.9994 15.5905C14.2293 16.28 13.3248 16.8027 12.3429 17.1257C12.0621 16.7741 11.7056 16.4903 11.2999 16.2954C10.8943 16.1005 10.4499 15.9995 9.99992 16C9.54983 15.9996 9.10544 16.1007 8.6998 16.2957C8.29416 16.4908 7.9377 16.7747 7.65692 17.1265C6.67499 16.8035 5.77053 16.2808 5.00041 15.5912C5.1644 15.1723 5.23189 14.7218 5.19788 14.2732C5.16386 13.8246 5.0292 13.3894 4.80391 13C4.57913 12.6101 4.26935 12.2758 3.8976 12.0221C3.52585 11.7684 3.1017 11.6017 2.65666 11.5345C2.44615 10.5226 2.44615 9.47816 2.65666 8.46624C3.10176 8.39894 3.52596 8.23216 3.89772 7.97831C4.26947 7.72445 4.57922 7.39006 4.80391 6.99999C5.02909 6.61067 5.16368 6.17562 5.1977 5.72716C5.23171 5.2787 5.16428 4.82833 5.00041 4.40949V4.40874ZM11.1249 11.9477C11.3829 11.8011 11.6093 11.6048 11.7911 11.3703C11.9729 11.1358 12.1065 10.8677 12.1842 10.5813C12.262 10.2949 12.2823 9.99602 12.2441 9.70177C12.2058 9.40751 12.1098 9.12373 11.9614 8.86675C11.813 8.60978 11.6153 8.38469 11.3796 8.20445C11.1439 8.0242 10.8748 7.89236 10.5879 7.81652C10.3011 7.74067 10.002 7.72232 9.70803 7.76252C9.41404 7.80272 9.1309 7.90067 8.87492 8.05074C8.36235 8.35123 7.98945 8.84226 7.83758 9.41668C7.68571 9.99109 7.76721 10.6023 8.0643 11.1168C8.36138 11.6314 8.84993 12.0075 9.42332 12.1632C9.99672 12.3188 10.6084 12.2414 11.1249 11.9477Z" fill="#525866"/>
</svg>
