<svg width="24" height="24" viewBox="0 0 24 24" fill="none" xmlns="http://www.w3.org/2000/svg">
<path d="M10.65 16.5H4.8V14.7H10.65C11.2249 14.7002 11.7887 14.8577 12.2805 15.1555C12.7722 15.4533 13.1731 15.8799 13.4397 16.3892C13.7063 16.8986 13.8284 17.4711 13.7928 18.0449C13.7573 18.6187 13.5654 19.1718 13.2379 19.6443C12.9105 20.1168 12.46 20.4906 11.9352 20.7254C11.4104 20.9601 10.8314 21.0468 10.2609 20.976C9.69045 20.9052 9.1502 20.6797 8.69874 20.3238C8.24728 19.9679 7.90183 19.4952 7.6998 18.957L9.3855 18.3243C9.47206 18.555 9.6201 18.7576 9.81357 18.9101C10.007 19.0627 10.2386 19.1593 10.4831 19.1897C10.7276 19.2201 10.9757 19.1829 11.2006 19.0824C11.4255 18.9818 11.6186 18.8216 11.759 18.6191C11.8993 18.4166 11.9816 18.1795 11.9968 17.9336C12.0121 17.6877 11.9598 17.4423 11.8455 17.224C11.7313 17.0057 11.5595 16.8229 11.3488 16.6953C11.138 16.5676 10.8964 16.5001 10.65 16.5ZM5.7 11.1H17.85C18.4249 11.1002 18.9887 11.2577 19.4805 11.5555C19.9722 11.8533 20.3731 12.2799 20.6397 12.7892C20.9063 13.2986 21.0284 13.8711 20.9928 14.4449C20.9573 15.0187 20.7654 15.5718 20.4379 16.0443C20.1105 16.5168 19.66 16.8906 19.1352 17.1254C18.6104 17.3601 18.0314 17.4468 17.4609 17.376C16.8904 17.3052 16.3502 17.0797 15.8987 16.7238C15.4473 16.3679 15.1018 15.8952 14.8998 15.357L16.5855 14.7243C16.6721 14.955 16.8201 15.1576 17.0136 15.3101C17.207 15.4626 17.4386 15.5593 17.6831 15.5897C17.9276 15.6201 18.1757 15.5829 18.4006 15.4824C18.6255 15.3818 18.8186 15.2215 18.959 15.0191C19.0993 14.8166 19.1816 14.5795 19.1968 14.3336C19.2121 14.0877 19.1598 13.8423 19.0455 13.624C18.9313 13.4058 18.7595 13.2229 18.5488 13.0953C18.338 12.9676 18.0964 12.9001 17.85 12.9H5.7C4.98392 12.9 4.29716 12.6155 3.79081 12.1092C3.28446 11.6028 3 10.9161 3 10.2C3 9.48391 3.28446 8.79716 3.79081 8.29081C4.29716 7.78446 4.98392 7.5 5.7 7.5H13.35C13.5964 7.4999 13.838 7.43237 14.0488 7.30474C14.2595 7.17711 14.4313 6.99425 14.5455 6.77596C14.6598 6.55767 14.7121 6.31227 14.6968 6.06637C14.6816 5.82047 14.5993 5.58343 14.459 5.38094C14.3186 5.17845 14.1255 5.01823 13.9006 4.91764C13.6757 4.81705 13.4276 4.77993 13.1831 4.81029C12.9386 4.84066 12.707 4.93735 12.5136 5.0899C12.3201 5.24245 12.1721 5.44503 12.0855 5.6757L10.3998 5.0439C10.6594 4.35342 11.1531 3.77593 11.7947 3.41203C12.4364 3.04813 13.1854 2.9209 13.9113 3.05251C14.6371 3.18412 15.2938 3.56623 15.7668 4.13225C16.2399 4.69827 16.4993 5.41233 16.5 6.15C16.5 6.98543 16.1681 7.78665 15.5774 8.37739C14.9866 8.96812 14.1854 9.3 13.35 9.3H5.7C5.46131 9.3 5.23239 9.39482 5.0636 9.5636C4.89482 9.73239 4.8 9.9613 4.8 10.2C4.8 10.4387 4.89482 10.6676 5.0636 10.8364C5.23239 11.0052 5.46131 11.1 5.7 11.1Z" fill="#335CFF"/>
</svg>
